# xmcd
#
# Track frame offsets:
#	150
#	15285
#	29300
#	41170
#	52492
#	65437
#	82250
#	95262
#	108670
#	121790
#	133515
#	146832
#	155582
#	167535
#	181607
#	192897
#	204692
#	214992
#	224910
#	234497
#	249700
#	260430
#	273762
#
# Disc length: 3830 seconds
#
# Revision: 1
# Processed by: cddbd v1.5.2PL0 Copyright (c) Steve Scherf et al.
# Submitted via: audiograbber 1.83.01
#
DISCID=5b0ef417
DTITLE=Slim Whitman - Reader's Digest Country Classics [Disc 3]
DYEAR=1995
DGENRE=Country
TTITLE0=Indian Love Call
TTITLE1=China Doll
TTITLE2=I'll See You When
TTITLE3=Annie Laurie
TTITLE4=Silver Threads Among The Gold
TTITLE5=Let Me Call You Sweetheart
TTITLE6=Now Is The Hour
TTITLE7=I Wanna Go To Heaven
TTITLE8=Blue Canadian Rockies
TTITLE9=Let The Rest Of The World Go By
TTITLE10=Harbour Lights
TTITLE11=When You Were Sweet Sixteen
TTITLE12=When I Grow Too Old To Dream
TTITLE13=You Are My Sunshine
TTITLE14=Ah! Sweet Mystery Of Life
TTITLE15=The Loveliest Night Of The Year
TTITLE16=It's A Sin To Tell A Lie
TTITLE17=When You Wore A Tulip And I Wore A Big Red Rose
TTITLE18=My Blue Heaven
TTITLE19=I Climbed The Mountain
TTITLE20=La Golondrina
TTITLE21=Little Drops Of Silver
TTITLE22=I'll Take You Home Again, Kathleen
EXTD=YEAR: 1995
EXTT0=
EXTT1=
EXTT2=
EXTT3=
EXTT4=
EXTT5=
EXTT6=
EXTT7=
EXTT8=
EXTT9=
EXTT10=
EXTT11=
EXTT12=
EXTT13=
EXTT14=
EXTT15=
EXTT16=
EXTT17=
EXTT18=
EXTT19=
EXTT20=
EXTT21=
EXTT22=
PLAYORDER=
